<?xml version="1.0" encoding="UTF-8"?>
<!DOCTYPE svg PUBLIC "-//W3C//DTD SVG 1.1//EN" "http://www.w3.org/Graphics/SVG/1.1/DTD/svg11.dtd">
<!-- Creator: CorelDRAW 2019 (64-Bit) -->
<svg xmlns="http://www.w3.org/2000/svg" xml:space="preserve" width="167.456mm" height="39.5113mm" version="1.1" style="shape-rendering:geometricPrecision; text-rendering:geometricPrecision; image-rendering:optimizeQuality; fill-rule:evenodd; clip-rule:evenodd"
viewBox="0 0 16731.31 3947.76"
 xmlns:xlink="http://www.w3.org/1999/xlink">
 <defs>
  <style type="text/css">
   <![CDATA[
    .fil5 {fill:none}
    .fil10 {fill:#FEFEFE}
    .fil9 {fill:#8BBE37}
    .fil0 {fill:#0FA24A}
    .fil2 {fill:#377630;fill-rule:nonzero}
    .fil1 {fill:#0A5799;fill-rule:nonzero}
    .fil7 {fill:url(#id11)}
    .fil6 {fill:url(#id12)}
    .fil8 {fill:url(#id13)}
    .fil3 {fill:url(#id14)}
    .fil4 {fill:url(#id15)}
   ]]>
  </style>
     <clipPath id="id0">
      <path d="M905.05 3590.75c-4.89,-2.7 -9.84,-5.55 -14.89,-8.54 -429.97,-248.9 -718.02,-704.74 -718.02,-1225.94 0,-58.69 3.67,-116.55 10.76,-173.37 20.76,-253.49 128.83,-532.66 266.83,-715.6 49.57,-65.7 106.29,-138.06 161.79,-189.96 342.88,-320.53 780.95,-483.57 1295.17,-391.5 11.43,2.04 31.62,4.77 43.56,7.93 73.11,19.44 37.46,109.97 119.19,285.31 21.66,46.49 33.08,77.54 57.05,122.39 59.13,110.68 130.75,218.13 216.38,307.54 307.26,320.78 728.31,505.7 1249,514.39l-63.76 -277.65c-53.2,-273.15 -96.55,-556.34 -234.06,-791.15 -172.21,-294.08 -455.87,-452.94 -914.08,-456.94l-224.36 18.29c39.47,30.31 144.58,72.85 194.56,102.84 176.37,105.78 369.22,240.86 449.91,450.44l-226.11 -188.01c-1126.83,-772.99 -2573.99,50.88 -2573.99,1323.94 0,918.7 737.5,1642.61 1624.32,1642.61 335.61,0 685.01,-105.2 939.67,-291 116.3,-84.85 124.3,-93 219.15,-185.21l97.9 -104.23c83.06,-95 183.84,-255.62 234.83,-371.16 45.24,-102.53 76.75,-183.95 103.93,-300.46 14.61,-62.61 41.83,-219.87 42.37,-312.91l-154.18 73.03c-52.65,741.38 -688.94,1326.95 -1466.15,1326.95 -268.51,0 -520.19,-69.94 -736.8,-192.01z"/>
     </clipPath>
       <clipPath id="id1">
        <path d="M905.05 3590.75c-4.89,-2.7 -9.84,-5.55 -14.89,-8.54 -429.97,-248.9 -718.02,-704.74 -718.02,-1225.94 0,-58.69 3.67,-116.55 10.76,-173.37 20.76,-253.49 128.83,-532.66 266.83,-715.6 49.57,-65.7 106.29,-138.06 161.79,-189.96 342.88,-320.53 780.95,-483.57 1295.17,-391.5 11.43,2.04 31.62,4.77 43.56,7.93 73.11,19.44 37.46,109.97 119.19,285.31 21.66,46.49 33.08,77.54 57.05,122.39 59.13,110.68 130.75,218.13 216.38,307.54 307.26,320.78 728.31,505.7 1249,514.39l-63.76 -277.65c-53.2,-273.15 -96.55,-556.34 -234.06,-791.15 -172.21,-294.08 -455.87,-452.94 -914.08,-456.94l-224.36 18.29c39.47,30.31 144.58,72.85 194.56,102.84 176.37,105.78 369.22,240.86 449.91,450.44l-226.11 -188.01c-1126.83,-772.99 -2573.99,50.88 -2573.99,1323.94 0,918.7 737.5,1642.61 1624.32,1642.61 335.61,0 685.01,-105.2 939.67,-291 116.3,-84.85 124.3,-93 219.15,-185.21l97.9 -104.23c83.06,-95 183.84,-255.62 234.83,-371.16 45.24,-102.53 76.75,-183.95 103.93,-300.46 14.61,-62.61 41.83,-219.87 42.37,-312.91l-154.18 73.03c-52.65,741.38 -688.94,1326.95 -1466.15,1326.95 -268.51,0 -520.19,-69.94 -736.8,-192.01z"/>
       </clipPath>
       <clipPath id="id2">
        <path d="M905.05 3590.75c-4.89,-2.7 -9.84,-5.55 -14.89,-8.54 -429.97,-248.9 -718.02,-704.74 -718.02,-1225.94 0,-58.69 3.67,-116.55 10.76,-173.37 20.76,-253.49 128.83,-532.66 266.83,-715.6 49.57,-65.7 106.29,-138.06 161.79,-189.96 342.88,-320.53 780.95,-483.57 1295.17,-391.5 11.43,2.04 31.62,4.77 43.56,7.93 73.11,19.44 37.46,109.97 119.19,285.31 21.66,46.49 33.08,77.54 57.05,122.39 59.13,110.68 130.75,218.13 216.38,307.54 307.26,320.78 728.31,505.7 1249,514.39l-63.76 -277.65c-53.2,-273.15 -96.55,-556.34 -234.06,-791.15 -172.21,-294.08 -455.87,-452.94 -914.08,-456.94l-224.36 18.29c39.47,30.31 144.58,72.85 194.56,102.84 176.37,105.78 369.22,240.86 449.91,450.44l-226.11 -188.01c-1126.83,-772.99 -2573.99,50.88 -2573.99,1323.94 0,918.7 737.5,1642.61 1624.32,1642.61 335.61,0 685.01,-105.2 939.67,-291 116.3,-84.85 124.3,-93 219.15,-185.21l97.9 -104.23c83.06,-95 183.84,-255.62 234.83,-371.16 45.24,-102.53 76.75,-183.95 103.93,-300.46 14.61,-62.61 41.83,-219.87 42.37,-312.91l-154.18 73.03c-52.65,741.38 -688.94,1326.95 -1466.15,1326.95 -268.51,0 -520.19,-69.94 -736.8,-192.01z"/>
       </clipPath>
     <mask id="id3">
  <linearGradient id="id4" gradientUnits="userSpaceOnUse" x1="2959.03" y1="1010.16" x2="3123.1" y2="1233.35">
   <stop offset="0" style="stop-opacity:1; stop-color:white"/>
   <stop offset="1" style="stop-opacity:0; stop-color:white"/>
  </linearGradient>
      <rect style="fill:url(#id4)" x="2950.92" y="1032.65" width="255.27" height="290.79"/>
     </mask>
     <mask id="id5">
  <linearGradient id="id6" gradientUnits="userSpaceOnUse" x1="2309.26" y1="213.18" x2="2466.94" y2="152.26">
   <stop offset="0" style="stop-opacity:1; stop-color:white"/>
   <stop offset="1" style="stop-opacity:0; stop-color:white"/>
  </linearGradient>
      <rect style="fill:url(#id6)" x="2327.78" y="96.6" width="198.93" height="146.11"/>
     </mask>
     <mask id="id7">
  <linearGradient id="id8" gradientUnits="userSpaceOnUse" x1="2975.55" y1="1029.42" x2="3062.47" y2="1147.65">
   <stop offset="0" style="stop-opacity:1; stop-color:white"/>
   <stop offset="1" style="stop-opacity:0; stop-color:white"/>
  </linearGradient>
      <rect style="fill:url(#id8)" x="2966.55" y="1036.63" width="144.64" height="163.46"/>
     </mask>
     <mask id="id9">
  <linearGradient id="id10" gradientUnits="userSpaceOnUse" x1="2323.24" y1="206.53" x2="2406.77" y2="174.26">
   <stop offset="0" style="stop-opacity:1; stop-color:white"/>
   <stop offset="1" style="stop-opacity:0; stop-color:white"/>
  </linearGradient>
      <rect style="fill:url(#id10)" x="2328.35" y="140.07" width="114.79" height="86.81"/>
     </mask>
  <linearGradient id="id11" gradientUnits="userSpaceOnUse" x1="898.19" y1="2488.12" x2="3033.99" y2="2488.12">
   <stop offset="0" style="stop-opacity:1; stop-color:#0A5799"/>
   <stop offset="1" style="stop-opacity:1; stop-color:#8CBF35"/>
  </linearGradient>
  <linearGradient id="id12" gradientUnits="userSpaceOnUse" x1="1608.33" y1="311.99" x2="2740.95" y2="311.99">
   <stop offset="0" style="stop-opacity:1; stop-color:#1B6B1B"/>
   <stop offset="1" style="stop-opacity:1; stop-color:#8BBE37"/>
  </linearGradient>
  <linearGradient id="id13" gradientUnits="userSpaceOnUse" xlink:href="#id11" x1="1366.19" y1="1522.87" x2="1839.2" y2="1522.87">
  </linearGradient>
  <linearGradient id="id14" gradientUnits="userSpaceOnUse" x1="730.24" y1="2972.55" x2="2577.78" y2="2972.55">
   <stop offset="0" style="stop-opacity:1; stop-color:#0A5799"/>
   <stop offset="1" style="stop-opacity:1; stop-color:#67B43C"/>
  </linearGradient>
  <linearGradient id="id15" gradientUnits="userSpaceOnUse" xlink:href="#id12" x1="-0" y1="2272.7" x2="3591.87" y2="2272.7">
  </linearGradient>
 </defs>
 <g id="Layer_x0020_1">
  <metadata id="CorelCorpID_0Corel-Layer"/>
  <g id="_2481361429504">
   <path class="fil0" d="M13211.42 1697.1c52.86,-59.28 56.88,-144.16 268.38,-324.75 90.88,-77.61 248.59,-181.52 405.9,-190.93 -134.05,86.45 -172.45,65.14 -338.95,227.51 -66.79,65.13 -190.34,226.25 -209.79,357.61 666.41,43.72 862.51,-308.67 1223.13,-624.68 84.67,-74.22 134.93,-74.65 173.22,-100.6 -163.57,-44.64 -301.75,-90.04 -494.8,-106.27 -504.22,-42.36 -1086.15,156.71 -1027.09,762.12z"/>
   <path class="fil1" d="M12713.38 3702.01c-154.35,0 -286.07,-30.15 -395.14,-90.48 -109.1,-60.34 -163.65,-133.59 -163.65,-219.76 0,-49.99 26.6,-102.13 79.83,-156.42 53.21,-54.29 124.16,-101.26 212.86,-140.91 -76.27,-27.57 -137.47,-65.93 -183.59,-115.04 -46.13,-49.14 -69.19,-101.27 -69.19,-156.44 0,-60.32 27.95,-118.92 83.82,-175.8 55.88,-56.89 129.95,-101.69 222.18,-134.44 -76.26,-34.47 -137.47,-87.05 -183.59,-157.72 -46.11,-70.67 -69.19,-147.37 -69.19,-230.11 0,-132.72 56.77,-239.16 170.3,-319.3 113.53,-80.14 265.2,-120.22 455.01,-120.22 237.56,0 508.18,67.58 572.09,321.88 8.86,35.34 13.3,74.56 13.3,117.64 0,132.72 -53.21,239.16 -159.65,319.3 -106.43,80.16 -248.35,120.24 -425.74,120.24 -92.25,0 -163.21,-4.31 -212.87,-12.93 -37.25,17.24 -66.52,36.2 -87.82,56.87 -21.28,20.69 -31.92,40.51 -31.92,59.47 0,29.31 32.36,53.86 97.11,73.68 64.76,19.83 143.25,29.73 235.5,29.73 228.83,0 401.35,32.76 517.55,98.25 116.18,65.5 174.29,162.03 174.29,289.58 0,172.35 -74.52,305.93 -223.52,400.74 -149.01,94.8 -358.33,142.19 -627.96,142.19zm186.26 -180.97c102.87,0 190.69,-20.26 263.43,-60.77 72.72,-40.51 109.08,-89.2 109.08,-146.08 0,-53.43 -22.61,-92.21 -67.83,-116.35 -45.25,-24.13 -129.07,-41.36 -251.46,-51.71 -35.48,-8.62 -88.71,-15.09 -159.66,-19.39 -70.96,-4.31 -124.17,-10.77 -159.64,-19.38 -37.26,31.02 -66.53,64.62 -87.81,100.82 -21.3,36.2 -31.94,71.54 -31.94,106.01 0,56.87 37.71,105.57 113.09,146.08 75.4,40.51 166.3,60.77 272.75,60.77zm-26.62 -1163.46c58.53,0 104.22,-21.54 137.03,-64.63 32.82,-43.08 49.23,-103.42 49.23,-180.98 0,-77.56 -16.41,-137.89 -49.23,-180.98 -32.81,-43.09 -78.5,-64.63 -137.03,-64.63 -67.41,0 -119.74,21.54 -157,64.63 -37.26,43.08 -55.87,103.41 -55.87,180.98 0,77.55 18.61,137.89 55.87,180.98 37.26,43.09 89.58,64.63 157,64.63z"/>
   <path class="fil2" d="M3987.83 3211.17l0 -1985.06 1070.89 0 0 444.02 -574.61 0 0 339.55 574.61 0 0 417.91 -574.61 0 0 783.57 -496.28 0zm1936.25 26.12c-215.93,0 -400.5,-76.62 -553.73,-229.85 -153.25,-153.23 -229.86,-337.8 -229.86,-553.73 0,-215.91 76.61,-400.49 229.86,-553.73 153.23,-153.23 337.8,-229.84 553.73,-229.84 81.83,0 157.14,13.5 225.93,40.49 68.77,27 124.06,65.73 165.86,116.23l0 -130.59 417.89 0 0 1514.91 -417.89 0 0 -156.73c-40.07,57.47 -94.9,102.3 -164.56,134.53 -69.65,32.2 -145.4,48.32 -227.23,48.32zm13.05 -444.03c97.52,0 180.66,-34.39 249.44,-103.16 68.78,-68.79 103.17,-151.93 103.17,-249.44 0,-97.52 -34.39,-180.67 -103.17,-249.45 -68.78,-68.78 -151.92,-103.16 -249.44,-103.16 -97.51,0 -180.66,34.38 -249.44,103.16 -68.78,68.78 -103.16,151.93 -103.16,249.45 0,97.51 34.38,180.65 103.16,249.44 68.78,68.77 151.93,103.16 249.44,103.16zm1087.35 417.91l0 -1514.91 417.91 0 0 182.82c15.67,-57.45 54.85,-104.48 117.53,-141.04 62.7,-36.57 136.69,-54.85 222.02,-54.85 34.82,0 52.24,0 52.24,0l0 404.85 -104.47 0c-71.4,0 -132.78,27.86 -184.14,83.58 -51.38,55.71 -77.05,123.62 -77.05,203.72l0 835.83 -444.03 0zm977.65 0l0 -1514.91 417.91 0 0 156.71c33.08,-55.71 87.06,-100.12 161.94,-133.21 74.87,-33.09 160.19,-49.63 255.97,-49.63 97.5,0 184.57,22.63 261.19,67.91 76.61,45.27 128.85,105.35 156.72,180.22 34.83,-74.87 99.68,-134.94 194.58,-180.22 94.9,-45.28 204.18,-67.91 327.8,-67.91 137.56,0 254.66,53.54 351.3,160.63 96.64,107.09 144.96,236.38 144.96,387.87l0 992.53 -444.02 0 0 -861.93c0,-74.89 -23.07,-138.87 -69.21,-191.98 -46.15,-53.11 -101.43,-79.66 -165.87,-79.66 -64.43,0 -119.7,26.55 -165.86,79.66 -46.14,53.1 -69.21,117.09 -69.21,191.98l0 861.93 -444.02 0 0 -861.93c0,-71.39 -23.08,-132.78 -69.22,-184.14 -46.14,-51.38 -101.43,-77.04 -165.86,-77.04 -64.43,0 -119.71,25.67 -165.85,77.04 -46.14,51.37 -69.21,112.75 -69.21,184.14l0 861.93 -444.04 0zm3221.31 26.12c-215.93,0 -400.5,-76.62 -553.73,-229.85 -153.25,-153.23 -229.86,-337.8 -229.86,-553.73 0,-215.91 76.61,-400.49 229.86,-553.73 153.23,-153.23 337.8,-229.84 553.73,-229.84 81.83,0 157.14,13.5 225.93,40.49 68.77,27 124.06,65.73 165.86,116.23l0 -130.59 417.89 0 0 1514.91 -417.89 0 0 -156.73c-40.07,57.47 -94.9,102.3 -164.56,134.53 -69.65,32.2 -145.4,48.32 -227.23,48.32zm13.05 -444.03c97.52,0 180.66,-34.39 249.44,-103.16 68.78,-68.79 103.17,-151.93 103.17,-249.44 0,-97.52 -34.39,-180.67 -103.17,-249.45 -68.78,-68.78 -151.92,-103.16 -249.44,-103.16 -97.51,0 -180.66,34.38 -249.44,103.16 -68.78,68.78 -103.16,151.93 -103.16,249.45 0,97.51 34.38,180.65 103.16,249.44 68.78,68.77 151.93,103.16 249.44,103.16z"/>
   <path class="fil1" d="M14411.14 3237.29c-212.44,0 -393.96,-74.01 -544.59,-222.01 -150.61,-148.01 -225.94,-326.49 -225.94,-535.44 0,-224.63 75.33,-416.17 225.94,-574.63 150.62,-158.45 332.15,-237.69 544.59,-237.69 212.44,0 393.97,71.83 544.58,215.49 150.63,143.66 225.94,316.48 225.94,518.47l0 208.95 -1123.12 0c19.15,73.14 61.82,132.78 127.99,178.92 66.15,46.14 141.04,69.21 224.62,69.21 64.43,0 120.16,-8.26 167.17,-24.81 47.01,-16.55 78.34,-38.74 94.03,-66.59l457.08 0c-36.57,139.29 -121.89,252.47 -255.97,339.55 -134.07,87.06 -288.18,130.59 -462.31,130.59zm-339.55 -940.29l692.17 0c-12.19,-67.91 -51.39,-124.06 -117.55,-168.48 -66.17,-44.4 -144.52,-66.6 -235.07,-66.6 -87.08,0 -162.37,22.2 -225.93,66.6 -63.57,44.41 -101.43,100.56 -113.62,168.48zm1301.52 914.17l0 -1514.91 417.91 0 0 182.82c29.6,-64.43 84.46,-115.36 164.55,-152.79 80.1,-37.44 173.25,-56.16 279.47,-56.16 137.56,0 254.67,53.54 351.3,160.63 96.65,107.09 144.97,236.38 144.97,387.87l0 992.53 -444.02 0 0 -861.93c0,-71.39 -23.08,-132.78 -69.22,-184.14 -46.14,-51.38 -101.43,-77.04 -165.86,-77.04 -64.43,0 -119.71,25.67 -165.85,77.04 -46.14,51.37 -69.21,112.75 -69.21,184.14l0 861.93 -444.04 0z"/>
   <g>
    <path class="fil3" d="M1910.74 2100.08c64.92,11.42 255.37,63.4 336.44,83.05 172.05,41.71 126.44,50.29 248.73,9.02 27.36,-9.23 55.7,-19.78 81.87,-25.83 -14.29,32.74 -101.05,111.98 -134.38,137.11 -11.97,9.03 -20.5,15.57 -32.6,25.06 -21.45,16.83 -42.63,30.25 -65.24,45.01 -382.6,249.92 -890.89,358.32 -930.63,383.39 -3.05,-2.22 -67.62,-28.18 -76.54,-31.12 -27.91,-9.24 -55.71,-17.95 -82.33,-28.64 -49.52,-19.9 -106.49,-43.4 -139.64,-78.9 59.98,-36.95 268.9,-108.32 359.03,-135.31l25.45 -10.99 -394.23 -100.69c4.56,-8.46 -0.82,-1.26 7.36,-11.03 2.8,-3.34 5.79,-6.18 8.84,-8.74 8.12,-6.77 10.27,-9.04 22.75,-10.71 38.34,4.22 337.14,82.12 400.08,97.96 54.16,13.64 45.22,10.42 98.43,-3.11 34.26,-8.71 68.42,-18.15 102.13,-26.45 63.24,-15.55 135.71,-38.82 199.87,-52.13 -36.5,-22.43 -419.79,-99.08 -507.99,-130.38 16.13,-12.55 58.87,-23.43 79.97,-21.01 51.57,7.86 329.84,80.91 403.88,99.43 126.5,31.65 82.88,34.79 202.36,1.18 59.94,-16.86 138.07,-46.21 193.98,-56.98 -13.83,-10.89 -39.84,-15.24 -59.67,-20.14l-423.73 -105.58c8.59,-11.88 18.53,-10.63 35.78,-17.01 16.79,-6.2 23.22,-8.29 40.03,-6.45zm-568.41 796.38c11.4,11.22 22.66,13.98 33.97,26.13 -4.72,9.99 -255.16,227.7 -274.56,238.03 2.48,9.85 0.3,5.66 5.96,12.82 35.81,16.31 71.36,49.21 108.22,71.64 134.59,81.92 90.22,95.5 190.9,12.61 27.93,-22.98 47.88,-37.25 74.3,-58.09l146.98 -117.71c10.74,10.86 20.39,15.59 31.35,27.47 -13.66,22.36 -266.11,205.52 -288.46,232.23 12.83,24.32 62.14,42.5 80.8,61.02l183.73 119.41c56.94,-37.45 217.7,-175.53 250.29,-188.74 13.05,11.27 16.5,7.3 21.32,31.53 -0.55,0.92 -1.63,1.14 -1.96,2.58 -0.32,1.43 -1.55,2.03 -2.02,2.51l-167.88 128.02c-21.96,16.25 -21.16,23.29 -58.88,46.67 9.06,14.16 23.43,16.72 35.56,31.56 352.14,205.56 249.99,251.33 162.57,268.38 -67.76,13.23 -345.04,-93.46 -375.45,-54.15 -136.32,-36.42 -776.35,-532.73 -768.78,-749.11 4.07,-116.15 79.21,-231.24 164.46,-295.68 33.31,-25.19 99.01,-71.02 141.4,-87.49 12.86,11.95 23.65,25.46 38.84,39.91 56.49,53.72 59.96,51.87 113.25,94.16 9.34,7.41 13.11,11.9 23.06,19.63 -27.7,0.31 -105.01,25.55 -142.05,33.84 -63.48,14.2 -254.57,37.13 -214.21,125.19 19.3,42.1 61.99,67.24 74.98,79.37 9.47,8.85 3.7,2.37 6.41,9.43 10.88,6.3 19.18,11.56 30.21,20.26l95.79 59.53c2.5,-0.94 270.74,-222.39 279.88,-242.96z"/>
    <path class="fil4" d="M905.05 3590.75c-4.89,-2.7 -9.84,-5.55 -14.89,-8.54 -429.97,-248.9 -718.02,-704.74 -718.02,-1225.94 0,-58.69 3.67,-116.55 10.76,-173.37 20.76,-253.49 128.83,-532.66 266.83,-715.6 49.57,-65.7 106.29,-138.06 161.79,-189.96 342.88,-320.53 780.95,-483.57 1295.17,-391.5 11.43,2.04 31.62,4.77 43.56,7.93 73.11,19.44 37.46,109.97 119.19,285.31 21.66,46.49 33.08,77.54 57.05,122.39 59.13,110.68 130.75,218.13 216.38,307.54 307.26,320.78 728.31,505.7 1249,514.39l-63.76 -277.65c-53.2,-273.15 -96.55,-556.34 -234.06,-791.15 -172.21,-294.08 -455.87,-452.94 -914.08,-456.94l-224.36 18.29c39.47,30.31 144.58,72.85 194.56,102.84 176.37,105.78 369.22,240.86 449.91,450.44l-226.11 -188.01c-1126.83,-772.99 -2573.99,50.88 -2573.99,1323.94 0,918.7 737.5,1642.61 1624.32,1642.61 335.61,0 685.01,-105.2 939.67,-291 116.3,-84.85 124.3,-93 219.15,-185.21l97.9 -104.23c83.06,-95 183.84,-255.62 234.83,-371.16 45.24,-102.53 76.75,-183.95 103.93,-300.46 14.61,-62.61 41.83,-219.87 42.37,-312.91l-154.18 73.03c-52.65,741.38 -688.94,1326.95 -1466.15,1326.95 -268.51,0 -520.19,-69.94 -736.8,-192.01z"/>
    <g style="clip-path:url(#id0)">
     <g>
      <g>
      </g>
      <g style="clip-path:url(#id1)">
       <image x="-204.29" y="573.61" width="3803.16" height="3552.02" xlink:href="Farmagen Logo Final (SVG)_Images\Farmagen Logo Final (SVG)_ImgID1.png"/>
      </g>
      <g style="clip-path:url(#id2)">
      </g>
     </g>
    </g>
    <path class="fil5" d="M905.05 3590.75c-4.89,-2.7 -9.84,-5.55 -14.89,-8.54 -429.97,-248.9 -718.02,-704.74 -718.02,-1225.94 0,-58.69 3.67,-116.55 10.76,-173.37 20.76,-253.49 128.83,-532.66 266.83,-715.6 49.57,-65.7 106.29,-138.06 161.79,-189.96 342.88,-320.53 780.95,-483.57 1295.17,-391.5 11.43,2.04 31.62,4.77 43.56,7.93 73.11,19.44 37.46,109.97 119.19,285.31 21.66,46.49 33.08,77.54 57.05,122.39 59.13,110.68 130.75,218.13 216.38,307.54 307.26,320.78 728.31,505.7 1249,514.39l-63.76 -277.65c-53.2,-273.15 -96.55,-556.34 -234.06,-791.15 -172.21,-294.08 -455.87,-452.94 -914.08,-456.94l-224.36 18.29c39.47,30.31 144.58,72.85 194.56,102.84 176.37,105.78 369.22,240.86 449.91,450.44l-226.11 -188.01c-1126.83,-772.99 -2573.99,50.88 -2573.99,1323.94 0,918.7 737.5,1642.61 1624.32,1642.61 335.61,0 685.01,-105.2 939.67,-291 116.3,-84.85 124.3,-93 219.15,-185.21l97.9 -104.23c83.06,-95 183.84,-255.62 234.83,-371.16 45.24,-102.53 76.75,-183.95 103.93,-300.46 14.61,-62.61 41.83,-219.87 42.37,-312.91l-154.18 73.03c-52.65,741.38 -688.94,1326.95 -1466.15,1326.95 -268.51,0 -520.19,-69.94 -736.8,-192.01z"/>
    <path class="fil6" d="M1611.41 569.71c39.24,-44 42.21,-107 199.19,-241.03 67.45,-57.61 184.5,-134.73 301.26,-141.71 -99.49,64.17 -127.99,48.35 -251.57,168.86 -49.58,48.34 -141.27,167.92 -155.71,265.41 494.61,32.44 640.15,-229.09 907.8,-463.63 62.84,-55.08 100.14,-55.4 128.57,-74.67 -121.41,-33.13 -223.96,-66.83 -367.24,-78.87 -374.23,-31.44 -806.14,116.31 -762.31,565.65z"/>
    <path class="fil7" d="M1773.07 1888.79c56.4,-15.72 431.35,-120.52 454.84,-136.79 40.94,-10.49 74.51,-25.39 112.06,-38.11 181.41,-61.38 337.33,-125 509.64,-205.12l184.38 -94.52c-3.46,20.97 -49.4,86.06 -62.21,101.98 -26.17,32.55 -53.21,61.22 -80.48,87.33 -57.07,54.65 -117.93,100.76 -188.43,147.11 -291.12,191.38 -691.86,326.58 -1026.64,412.73 -161.51,38.53 -823.89,187 -623.64,406.66 14.38,15.78 43.22,44.21 63.83,48.17 33.15,35.5 90.12,59 139.64,78.9 26.62,10.68 54.42,19.39 82.33,28.64 8.92,2.95 73.5,28.91 76.54,31.12 149.2,52.97 353.92,198.24 463.81,302.52 51.05,48.44 130.45,135.69 170.54,213.63 53.9,104.78 24.63,222.15 -36.11,288.92 -7.42,-6.34 -0.87,2.94 -8.45,-10.67 -0.85,-1.53 -4.19,-10.13 -5.05,-12.49 -14.11,-38.83 -69.59,-163.29 -92.54,-174.01 -4.83,-24.23 -8.27,-20.26 -21.32,-31.53 -6.86,-24.25 -35.24,-49.01 -49.84,-67.67 -29.78,-38.09 -148.88,-146.9 -176.52,-156.25 -10.96,-11.88 -20.61,-16.61 -31.35,-27.47 -41.88,-26.55 -80.94,-54.71 -125.64,-83.25 -24.1,-15.38 -104.12,-69.88 -126.16,-76.05 -11.31,-12.15 -22.57,-14.91 -33.97,-26.13 -36.73,-19.75 -102.25,-68.13 -131.02,-84.67 -9.95,-7.73 -13.72,-12.22 -23.06,-19.63 -53.29,-42.29 -56.76,-40.44 -113.25,-94.16 -15.19,-14.45 -25.98,-27.96 -38.84,-39.91 -16.02,-34.6 -225.73,-238.54 -95.61,-413.99 127.13,-171.43 611.53,-293.75 832.51,-355.32z"/>
    <path class="fil8" d="M1812.62 1416.84c29.5,26.24 31.82,124.62 19.66,169.34 -49.95,183.72 -280.77,217.93 -385.88,113.28 -19.58,-19.49 -32.45,-29.27 -48.46,-57.64 -70.94,-125.75 -18.7,-281.49 113.63,-336.65 36.36,-15.16 133.51,-28.7 168.95,-3.32 52.7,13.58 116.99,69.28 132.1,114.99z"/>
    <path class="fil9" d="M2988.94 1054.47c42.09,-30.51 116.33,0.06 165.83,68.31 49.49,68.25 55.49,148.31 13.4,178.84 -42.08,30.52 -116.32,-0.06 -165.82,-68.3 -49.5,-68.25 -55.49,-148.32 -13.41,-178.85z"/>
    <path class="fil9" d="M2340.14 202.66c-11.24,-29.67 18.64,-68.5 66.75,-86.73 48.11,-18.23 96.22,-8.95 107.46,20.71 11.24,29.66 -18.64,68.5 -66.75,86.73 -48.11,18.22 -96.22,8.95 -107.46,-20.71z"/>
    <path class="fil10" style="mask:url(#id3)" d="M2988.94 1054.47c42.09,-30.51 116.33,0.06 165.83,68.31 49.49,68.25 55.49,148.31 13.4,178.84 -42.08,30.52 -116.32,-0.06 -165.82,-68.3 -49.5,-68.25 -55.49,-148.32 -13.41,-178.85z"/>
    <path class="fil10" style="mask:url(#id5)" d="M2340.14 202.66c-11.24,-29.67 18.64,-68.5 66.75,-86.73 48.11,-18.23 96.22,-8.95 107.46,20.71 11.24,29.66 -18.64,68.5 -66.75,86.73 -48.11,18.22 -96.22,8.95 -107.46,-20.71z"/>
    <path class="fil10" style="mask:url(#id7)" d="M2991.4 1052.89c22.29,-16.17 61.62,0.03 87.85,36.18 26.22,36.16 29.39,78.57 7.09,94.75 -22.29,16.17 -61.62,-0.03 -87.85,-36.19 -26.22,-36.16 -29.39,-78.57 -7.09,-94.74z"/>
    <path class="fil10" style="mask:url(#id9)" d="M2339.6 200.96c-5.95,-15.72 9.87,-36.29 35.36,-45.94 25.49,-9.66 50.98,-4.75 56.93,10.97 5.95,15.72 -9.88,36.29 -35.37,45.94 -25.49,9.66 -50.97,4.75 -56.92,-10.97z"/>
   </g>
  </g>
 </g>
</svg>
